<svg xmlns="http://www.w3.org/2000/svg" viewBox="0 0 391.031 80"><circle cx="40" cy="40" r="40" fill="#3b82f6"/><g fill="#d1d5db" opacity=".7"><path d="M67.5 42.5V40h-3.571v2.5a1.786 1.786 0 0 0 3.571 0ZM61.786 48.214V40h-3.572v8.214a1.786 1.786 0 0 0 3.572 0ZM56.071 51.071V40H52.5v11.071a1.786 1.786 0 0 0 3.571 0ZM50.357 45.357V40h-3.571v5.357a1.786 1.786 0 0 0 3.571 0ZM44.643 55.357V40H41.07v15.357a1.786 1.786 0 0 0 3.572 0ZM38.929 49.643V40h-3.572v9.643a1.786 1.786 0 0 0 3.572 0ZM33.214 58.214V40h-3.571v18.214a1.786 1.786 0 0 0 3.571 0ZM27.5 46.786V40h-3.571v6.786a1.786 1.786 0 0 0 3.571 0ZM21.786 52.5V40h-3.572v12.5a1.786 1.786 0 0 0 3.572 0ZM16.071 43.929V40H12.5v3.929a1.786 1.786 0 0 0 3.571 0Z"/></g><g fill="#fff"><path d="M67.5 37.5V40h-3.571v-2.5a1.786 1.786 0 0 1 3.571 0ZM61.786 31.786V40h-3.572v-8.214a1.786 1.786 0 0 1 3.572 0ZM56.071 28.929V40H52.5V28.929a1.786 1.786 0 0 1 3.571 0ZM50.357 34.643V40h-3.571v-5.357a1.786 1.786 0 0 1 3.571 0ZM44.643 24.643V40H41.07V24.643a1.786 1.786 0 0 1 3.572 0ZM38.929 30.357V40h-3.572v-9.643a1.786 1.786 0 0 1 3.572 0ZM33.214 21.786V40h-3.571V21.786a1.786 1.786 0 0 1 3.571 0ZM27.5 33.214V40h-3.571v-6.786a1.786 1.786 0 0 1 3.571 0ZM21.786 27.5V40h-3.572V27.5a1.786 1.786 0 0 1 3.572 0ZM16.071 36.071V40H12.5v-3.929a1.786 1.786 0 0 1 3.571 0Z"/></g><path fill="#333" d="m100 53.06 3.188-2.672c2.52 3.342 5.503 5.142 9.668 5.142 5.142 0 7.918-2.674 7.918-6.788 0-3.395-1.903-5.091-6.633-6.17l-2.931-.67c-6.53-1.49-10.13-4.37-10.13-9.872 0-6.377 4.834-9.821 11.88-9.821 5.398 0 9.202 2.056 11.877 5.862l-3.24 2.364c-1.954-2.724-4.679-4.422-8.844-4.422-4.577 0-7.405 2.006-7.405 5.862 0 3.394 2.211 4.937 6.736 5.966l2.931.668c6.994 1.594 10.028 4.679 10.028 10.028 0 6.582-4.629 10.798-12.342 10.798-5.759 0-9.821-2.365-12.7-6.274ZM130.137 45.45c0-8.433 4.73-13.883 11.93-13.883 7.096 0 11.467 5.45 11.467 12.959v1.953h-19.077v1.235c0 4.577 2.931 8.021 7.867 8.021 3.343 0 5.914-1.645 7.302-4.576l2.931 2.108c-1.696 3.6-5.502 6.068-10.49 6.068-7.2 0-11.93-5.451-11.93-13.884Zm4.32-2.416v.36h14.656v-.566c0-4.68-2.83-7.815-7.045-7.815-4.475 0-7.61 3.392-7.61 8.021ZM157.805 54.142l2.932-2.366c2.056 2.571 4.525 4.062 7.866 4.062 3.498 0 5.554-1.594 5.554-4.319 0-2.058-1.131-3.652-4.627-4.166l-2.108-.308c-4.886-.72-8.537-2.726-8.537-7.662 0-5.245 4.063-7.816 9.462-7.816 4.267 0 7.097 1.594 9.256 4.267l-2.726 2.47c-1.183-1.647-3.444-3.241-6.839-3.241s-5.193 1.594-5.193 4.114c0 2.571 1.8 3.6 5.09 4.114l2.058.308c5.862.875 8.124 3.446 8.124 7.457 0 5.142-3.753 8.279-9.822 8.279-4.884 0-8.125-2.057-10.49-5.193ZM182.543 54.142l2.931-2.366c2.057 2.571 4.526 4.062 7.867 4.062 3.498 0 5.554-1.594 5.554-4.319 0-2.058-1.131-3.652-4.627-4.166l-2.108-.308c-4.886-.72-8.537-2.726-8.537-7.662 0-5.245 4.063-7.816 9.461-7.816 4.268 0 7.097 1.594 9.257 4.267l-2.726 2.47c-1.183-1.647-3.445-3.241-6.839-3.241s-5.194 1.594-5.194 4.114c0 2.571 1.8 3.6 5.091 4.114l2.058.308c5.862.875 8.123 3.446 8.123 7.457 0 5.142-3.752 8.279-9.821 8.279-4.884 0-8.125-2.057-10.49-5.193ZM209.644 23.648v-.67c0-1.388.772-2.313 2.52-2.313 1.75 0 2.52.925 2.52 2.314v.67c0 1.387-.77 2.312-2.52 2.312-1.748 0-2.52-.925-2.52-2.313Zm.463 8.535h4.115v26.535h-4.115V32.183ZM221.01 45.45c0-8.433 4.886-13.883 11.982-13.883s11.981 5.45 11.981 13.884-4.885 13.884-11.98 13.884-11.983-5.451-11.983-13.884Zm19.541 1.903v-3.805c0-5.604-3.136-8.33-7.558-8.33s-7.56 2.726-7.56 8.33v3.805c0 5.606 3.137 8.33 7.56 8.33s7.558-2.724 7.558-8.33ZM251.765 58.718V32.183h4.114v4.32h.205c1.286-2.982 3.55-4.936 7.508-4.936 5.451 0 8.896 3.702 8.896 10.13v17.02h-4.113v-16.3c0-4.731-2.058-7.148-6.017-7.148-3.291 0-6.479 1.645-6.479 5.04v18.409h-4.114Z"/><path fill="#999" d="M288.022 58.718 276.09 22.825h4.629l5.912 18.1 3.961 13.474h.257l4.062-13.474 5.964-18.1h4.474l-12.084 35.893h-5.244ZM328.493 58.718c-3.033 0-4.267-1.851-4.576-4.32h-.256c-1.132 3.24-3.961 4.936-7.664 4.936-5.604 0-8.895-3.084-8.895-8.021 0-4.988 3.6-7.765 11.313-7.765h5.246v-2.623c0-3.753-2.058-5.81-6.274-5.81-3.19 0-5.297 1.542-6.737 3.959l-2.468-2.313c1.44-2.828 4.628-5.194 9.41-5.194 6.377 0 10.181 3.342 10.181 8.948v14.604h3.035v3.599h-2.315Zm-4.832-7.714v-4.37h-5.452c-4.68 0-6.787 1.44-6.787 4.01v1.08c0 2.623 2.056 4.114 5.245 4.114 4.063 0 6.994-2.108 6.994-4.834ZM353.025 54.399h-.205c-1.029 2.52-3.035 4.935-7.457 4.935-5.45 0-8.947-3.702-8.947-10.13v-17.02h4.114v16.3c0 4.732 2.108 7.148 6.067 7.148 3.24 0 6.428-1.593 6.428-5.09V32.182h4.114v26.535h-4.114v-4.32ZM370.255 58.718c-2.828 0-4.37-1.8-4.37-4.268V20.665h4.114V55.12h3.907v3.599h-3.65ZM385.477 58.718c-2.828 0-4.37-1.8-4.37-4.37V35.782h-4.371v-3.6h2.467c1.748 0 2.315-.616 2.315-2.416V24.83h3.703v7.353h5.81v3.6h-5.81v19.335h5.399v3.6h-5.143Z"/></svg>
