<svg xmlns="http://www.w3.org/2000/svg" viewBox="0 0 312.297 45"><path fill="#9ca3af" d="M88.597 7.5c4.498 0 7.799 2.971 9.037 6.066l-2.6 1.403c-1.32-2.641-3.425-4.374-6.437-4.374-3.178 0-5.365 1.816-5.365 4.333 0 2.352 1.486 3.837 4.622 5.034l2.104.784c5.2 1.94 8.46 4.168 8.46 8.748 0 4.952-4.746 8.006-9.656 8.006s-8.955-2.971-10.07-7.098l2.766-1.32c.99 3.053 3.59 5.282 7.304 5.282 3.3 0 6.107-1.898 6.107-4.828 0-3.302-2.311-4.54-5.736-5.86l-2.146-.825c-4.374-1.65-7.18-3.92-7.18-8.006 0-4.209 3.714-7.345 8.79-7.345ZM119.752 7.995v3.219h-8.005v25.667h-3.425V11.214h-8.047V7.995h19.477zM141.416 7.995h3.425V26.4c0 7.097-4.621 11.1-10.481 11.1s-10.481-4.003-10.481-11.1V7.995h3.425V26.4c0 5.405 3.218 7.84 7.056 7.84s7.056-2.435 7.056-7.84V7.995ZM158.376 8h-8.587v28.881h8.587c8.418 0 14.611-6.395 14.611-14.44S166.794 8 158.377 8Zm-.042 25.625h-5.119V11.257h5.119c6.896 0 11.141 4.99 11.141 11.184 0 6.182-4.245 11.184-11.141 11.184ZM177.111 7.995h3.425v28.886h-3.425zM199.644 7.585c-7.555 0-14.77 6.108-14.77 14.856s7.215 14.855 14.77 14.855c7.513 0 14.77-6.108 14.77-14.855s-7.257-14.856-14.77-14.856Zm0 26.444c-5.693 0-11.227-4.778-11.227-11.588s5.534-11.6 11.227-11.6c5.65 0 11.227 4.79 11.227 11.6s-5.576 11.588-11.227 11.588ZM234.553 33.662h12.957v3.219h-16.382V7.995h3.425v25.667zM265.792 7.585c-7.556 0-14.77 6.108-14.77 14.856s7.214 14.855 14.77 14.855c7.513 0 14.77-6.108 14.77-14.855s-7.257-14.856-14.77-14.856Zm0 26.444c-5.693 0-11.227-4.778-11.227-11.588s5.534-11.6 11.227-11.6c5.65 0 11.227 4.79 11.227 11.6s-5.576 11.588-11.227 11.588ZM312.255 22.356c.62 9.243-5.694 14.938-13.205 14.938-7.716 0-14.773-6.108-14.773-14.856S291.5 7.582 299.05 7.582c3.632 0 6.933 1.238 9.533 3.425l-2.105 2.394c-2.022-1.61-4.621-2.559-7.221-2.559-5.901 0-11.43 4.787-11.43 11.596s5.364 11.596 11.223 11.596c5.117 0 9.203-2.765 9.987-8.707h-8.418v-2.972h11.636Z"/><g fill="#3b82f6"><path d="M1.158 20.184c-.64 0-1.158.518-1.158 1.158v2.315a1.157 1.157 0 1 0 2.315 0v-2.315c0-.64-.518-1.158-1.157-1.158ZM5.583 16.019c-.64 0-1.158.518-1.158 1.157v10.648a1.157 1.157 0 1 0 2.315 0V17.176c0-.64-.518-1.157-1.157-1.157ZM10.008 18.383c-.64 0-1.157.518-1.157 1.158v5.918a1.157 1.157 0 1 0 2.315 0V19.54c0-.64-.519-1.158-1.158-1.158ZM14.433 11.983c-.64 0-1.158.518-1.158 1.158v18.717a1.157 1.157 0 1 0 2.316 0V13.141c0-.64-.518-1.158-1.158-1.158ZM18.858 6.162c-.64 0-1.158.518-1.158 1.158v30.358a1.157 1.157 0 1 0 2.316 0V7.32c0-.64-.518-1.158-1.158-1.158ZM23.284 12.723c-.64 0-1.158.518-1.158 1.157v17.238a1.157 1.157 0 1 0 2.315 0V13.88c0-.64-.518-1.158-1.157-1.158ZM27.812 6.936c-.671-.019-1.162.51-1.165 1.15l-.193 28.813c-.004.639.511 1.16 1.15 1.165h.008c.636 0 1.154-.513 1.158-1.15l.192-28.813a1.157 1.157 0 0 0-1.15-1.165ZM32.134 0c-.64 0-1.158.518-1.158 1.158v42.684a1.157 1.157 0 1 0 2.315 0V1.158c0-.64-.518-1.158-1.157-1.158ZM36.56 4.94c-.64 0-1.158.518-1.158 1.158v32.803a1.157 1.157 0 1 0 2.315 0V6.098c0-.64-.519-1.158-1.158-1.158ZM40.984 12.723c-.64 0-1.158.518-1.158 1.157v17.238a1.157 1.157 0 1 0 2.316 0V13.88c0-.64-.518-1.158-1.158-1.158ZM45.41 7.835c-.64 0-1.159.518-1.159 1.158v27.014a1.157 1.157 0 1 0 2.316 0V8.993c0-.64-.518-1.158-1.158-1.158ZM49.835 14.497c-.64 0-1.158.518-1.158 1.158v13.688a1.157 1.157 0 1 0 2.315 0V15.655c0-.64-.518-1.158-1.157-1.158ZM54.26 17.483c-.64 0-1.158.518-1.158 1.157v7.719a1.157 1.157 0 1 0 2.315 0V18.64c0-.64-.518-1.157-1.157-1.157ZM58.684 16.12c-.64 0-1.157.518-1.157 1.158v10.443a1.157 1.157 0 1 0 2.315 0V17.278c0-.64-.518-1.158-1.158-1.158ZM63.11 19.405c-.64 0-1.158.517-1.158 1.157v3.876a1.157 1.157 0 1 0 2.316 0v-3.876c0-.64-.519-1.157-1.158-1.157ZM67.535 20.506c-.64 0-1.158.518-1.158 1.158v1.672a1.157 1.157 0 1 0 2.316 0v-1.672c0-.64-.518-1.158-1.158-1.158Z"/></g></svg>
